<svg width="16" height="10" viewBox="0 0 16 10" fill="none" xmlns="http://www.w3.org/2000/svg">
<path fill-rule="evenodd" clip-rule="evenodd" d="M7.99991 1C11.3303 0.999877 13.4514 2.79095 14.9839 4.87734C13.4514 6.96368 11.3303 8.75467 7.99987 8.75467C4.66949 8.75467 2.54836 6.96368 1.01586 4.87734C2.54834 2.79104 4.66948 1.00012 7.99991 1ZM15.8199 4.32634C16.0597 4.65499 16.0597 5.09968 15.8199 5.42833C14.1837 7.67015 11.7932 9.75467 7.99987 9.75467C4.20654 9.75467 1.81604 7.67015 0.179896 5.42833C-0.0599656 5.09968 -0.0599654 4.65499 0.179897 4.32634C1.81604 2.08454 4.20654 0.000139927 7.99987 7.04307e-09C11.7932 -0.000139913 14.1837 2.0845 15.8199 4.32634ZM8.0001 8.12885C9.81289 8.12885 11.2824 6.67308 11.2824 4.87729C11.2824 3.0815 9.81289 1.62573 8.0001 1.62573C6.18732 1.62573 4.71776 3.0815 4.71776 4.87729C4.71776 6.67308 6.18732 8.12885 8.0001 8.12885Z" fill="#1C1C1C"/>
</svg>
